HIERARCHY
ROOT Hips
{
	OFFSET	0.00	0.00	0.00
	CHANNELS 6 Xposition Yposition Zposition Zrotation Xrotation Yrotation
	JOINT Chest
	{
		OFFSET	 0.00	 5.21	 0.00
		CHANNELS 3 Zrotation Xrotation Yrotation
		JOINT Neck
		{
			OFFSET	 0.00	 18.65	 0.00
			CHANNELS 3 Zrotation Xrotation Yrotation
			JOINT Head
			{
				OFFSET	 0.00	 5.45	 0.00
				CHANNELS 3 Zrotation Xrotation Yrotation
				End Site 
				{
					OFFSET	 0.00	 3.87	 0.00
				}
			}
		}
		JOINT LeftCollar
		{
			OFFSET	 1.12	 16.23	 1.87
			CHANNELS 3 Zrotation Xrotation Yrotation
			JOINT LeftUpArm
			{
				OFFSET	 5.54	 0.00	 0.00
				CHANNELS 3 Zrotation Xrotation Yrotation
				JOINT LeftLowArm
				{
					OFFSET	 0.00	-11.96	 0.00
					CHANNELS 3 Zrotation Xrotation Yrotation
					JOINT LeftHand
					{
						OFFSET	 0.00	-9.93	 0.00
						CHANNELS 3 Zrotation Xrotation Yrotation
						End Site 
						{
							OFFSET	 0.00	-7.00	 0.00
						}
					}
				}
			}
		}
		JOINT RightCollar
		{
			OFFSET	-1.12	 16.23	 1.87
			CHANNELS 3 Zrotation Xrotation Yrotation
			JOINT RightUpArm
			{
				OFFSET	-6.07	 0.00	 0.00
				CHANNELS 3 Zrotation Xrotation Yrotation
				JOINT RightLowArm
				{
					OFFSET	 0.00	-11.82	 0.00
					CHANNELS 3 Zrotation Xrotation Yrotation
					JOINT RightHand
					{
						OFFSET	 0.00	-10.65	 0.00
						CHANNELS 3 Zrotation Xrotation Yrotation
						End Site 
						{
							OFFSET	 0.00	-7.00	 0.00
						}
					}
				}
			}
		}
	}
	JOINT LeftUpLeg
	{
		OFFSET	 3.91	 0.00	 0.00
		CHANNELS 3 Zrotation Xrotation Yrotation
		JOINT LeftLowLeg
		{
			OFFSET	 0.00	-18.34	 0.00
			CHANNELS 3 Zrotation Xrotation Yrotation
			JOINT LeftFoot
			{
				OFFSET	 0.00	-17.37	 0.00
				CHANNELS 3 Zrotation Xrotation Yrotation
				End Site 
				{
					OFFSET	 0.00	-3.46	 0.00
				}
			}
		}
	}
	JOINT RightUpLeg
	{
		OFFSET	-3.91	 0.00	 0.00
		CHANNELS 3 Zrotation Xrotation Yrotation
		JOINT RightLowLeg
		{
			OFFSET	 0.00	-17.63	 0.00
			CHANNELS 3 Zrotation Xrotation Yrotation
			JOINT RightFoot
			{
				OFFSET	 0.00	-17.14	 0.00
				CHANNELS 3 Zrotation Xrotation Yrotation
				End Site 
				{
					OFFSET	 0.00	-3.75	 0.00
				}
			}
		}
	}
}
MOTION
Frames:    26
Frame Time: 0.033333
-3.18	 38.20	-1.10	-3.13	-0.45	 2.86	 7.52	 58.11	-21.71	 4.35	-9.91	 0.00	-11.45	-40.24	-6.15	 18.85	 0.00	-2.18	 116.37	-74.77	 124.21	-85.74	-40.42	-82.76	 0.72	 0.30	 0.00	 13.91	 0.00	 9.62	-59.87	 30.67	 36.67	 39.35	-46.02	 51.28	-1.70	 3.43	 0.10	 5.81	-13.85	 1.40	 1.67	 40.50	-0.47	 0.00	-30.96	 0.00	-13.04	-28.63	-6.33	 7.56	 35.01	-9.91	 0.00	-14.91	 0.00	
-3.54	 38.05	 0.18	-2.42	-0.12	 4.77	 9.96	 58.16	-22.96	 4.82	-10.04	 0.00	-11.21	-40.30	-5.78	 17.73	 0.00	-3.73	 108.55	-73.90	 116.33	-94.85	-38.33	-88.44	 0.72	 0.70	-0.01	 14.00	 0.00	 10.34	-58.16	 30.41	 34.17	 38.95	-45.50	 50.75	-1.71	 3.47	 0.10	 5.33	-12.66	 1.17	 3.13	 41.00	-2.57	 0.00	-33.05	 0.00	-13.92	-28.54	-6.75	 4.97	 23.98	-10.69	 0.00	-16.76	 0.00	
-4.00	 37.76	 1.57	-1.38	-0.02	 6.71	 12.05	 58.33	-25.05	 5.19	-10.23	 0.00	-11.02	-40.34	-5.48	 16.24	 0.00	-5.27	 94.38	-71.63	 101.88	-102.71	-35.17	-92.50	 0.71	 1.05	-0.01	 11.80	 0.00	 15.39	-49.79	 32.41	 27.07	 35.08	-44.52	 46.15	-1.78	 3.66	 0.11	 4.91	-11.27	 0.96	 4.33	 41.91	-4.47	 0.00	-35.28	 0.00	-14.89	-27.83	-7.08	 3.33	 14.33	-14.34	 0.00	-18.52	 0.00	
-4.54	 37.32	 3.02	-0.03	 0.08	 8.22	 13.07	 58.57	-26.34	 5.36	-10.57	 0.00	-10.92	-40.36	-5.33	 15.23	 0.00	-6.89	 78.80	-67.17	 85.66	-108.67	-31.97	-94.87	 0.69	 1.30	-0.02	 11.02	 0.00	 19.47	-43.89	 31.71	 20.84	 32.34	-43.67	 42.54	-1.84	 3.81	 0.12	 4.70	-9.81	 0.80	 4.75	 43.11	-5.62	 0.00	-37.58	 0.00	-15.88	-27.52	-7.49	 2.72	 8.45	-18.70	 0.00	-19.79	 0.00	
-5.10	 36.79	 4.44	 1.16	 0.63	 8.94	 13.24	 58.63	-26.12	 5.23	-11.00	 0.00	-10.97	-40.35	-5.41	 14.28	 0.00	-8.53	 67.13	-60.57	 72.75	-111.69	-29.23	-95.54	 0.69	 1.40	-0.02	 11.99	 0.00	 20.53	-43.53	 27.54	 16.51	 33.04	-42.52	 42.98	-1.85	 3.84	 0.12	 4.94	-8.78	 0.76	 4.44	 44.55	-5.86	 0.00	-39.84	 0.00	-16.63	-28.80	-8.19	 2.87	 8.04	-20.83	 0.00	-19.94	 0.00	
-5.66	 36.27	 5.79	 1.63	 1.69	 8.85	 13.66	 58.35	-24.63	 4.74	-11.35	 0.00	-11.21	-40.30	-5.78	 12.44	 0.00	-10.56	 60.64	-53.11	 64.36	-110.03	-27.09	-94.12	 0.70	 1.28	-0.02	 13.27	 0.00	 19.49	-45.49	 21.08	 11.33	 34.81	-41.12	 44.43	-1.84	 3.80	 0.12	 5.94	-8.30	 0.86	 3.72	 46.08	-5.28	 0.00	-41.91	 0.00	-16.87	-31.95	-9.12	 3.37	 12.62	-19.94	 0.00	-17.77	 0.00	
-6.21	 35.78	 7.24	 1.73	 2.38	 8.98	 15.77	 58.22	-23.98	 3.88	-11.53	 0.00	-11.63	-40.19	-6.43	 9.88	 0.00	-13.11	 56.54	-45.71	 57.64	-102.74	-26.48	-90.80	 0.73	 0.87	-0.01	 14.04	 0.00	 17.93	-47.06	 14.00	 4.42	 34.77	-40.32	 43.01	-1.84	 3.79	 0.12	 7.23	-7.34	 0.93	 3.49	 47.52	-4.81	 0.00	-43.54	 0.00	-17.37	-35.08	-10.19	 4.35	 19.28	-18.47	 0.00	-12.63	 0.00	
-6.70	 35.27	 8.97	 2.21	 1.53	 10.14	 20.73	 58.74	-26.67	 2.72	-11.58	 0.00	-12.19	-40.04	-7.30	 7.10	 0.00	-15.81	 52.18	-37.28	 49.30	-91.42	-29.75	-86.15	 0.74	 0.18	 0.00	 14.15	 0.00	 16.71	-48.08	 7.00	-3.40	 32.95	-40.60	 38.87	-1.83	 3.77	 0.12	 8.17	-4.70	 0.67	 4.45	 48.85	-5.22	 0.00	-44.42	 0.00	-19.13	-36.04	-11.53	 6.48	 26.23	-18.88	 0.00	-7.16	 0.00	
-7.13	 34.82	 10.85	 2.80	-0.21	 11.28	 27.13	 59.26	-31.23	 1.30	-11.61	 0.00	-12.87	-39.85	-8.36	 4.21	 0.00	-18.34	 47.88	-27.58	 39.34	-78.33	-37.21	-78.71	 0.74	-0.52	 0.01	 13.70	 0.00	 15.72	-49.52	-0.70	-12.68	 32.46	-40.74	 36.79	-1.80	 3.67	 0.12	 9.11	-1.32	 0.21	 5.56	 50.44	-5.17	 0.00	-43.86	 0.00	-20.92	-35.52	-12.52	 9.49	 33.23	-20.54	 0.00	-5.31	 0.00	
-7.52	 34.51	 12.66	 3.07	-1.54	 11.31	 32.37	 59.21	-34.65	-0.29	-11.62	 0.00	-13.61	-39.63	-9.53	 1.16	 0.00	-20.22	 44.79	-18.35	 30.00	-62.69	-43.85	-66.37	 0.71	-1.14	 0.01	 12.73	 0.00	 14.55	-51.46	-10.12	-24.38	 35.08	-39.19	 39.81	-1.76	 3.51	 0.11	 10.21	 0.97	-0.18	 5.83	 53.06	-3.89	 0.00	-40.83	 0.00	-21.23	-35.13	-12.60	 12.09	 39.75	-21.69	 0.00	-7.02	 0.00	
-7.89	 34.33	 14.37	 3.26	-2.30	 10.32	 35.43	 58.90	-36.11	-1.94	-11.53	 0.00	-14.37	-39.39	-10.73	-1.52	 0.00	-21.08	 42.46	-10.76	 22.11	-45.90	-45.51	-51.41	 0.67	-1.70	 0.02	 10.97	 0.00	 13.25	-53.18	-21.10	-36.43	 38.32	-36.62	 44.51	-1.72	 3.35	 0.10	 10.93	 1.57	-0.30	 5.70	 57.37	-2.52	 0.00	-34.43	 0.00	-20.29	-34.92	-11.95	 13.59	 45.38	-21.86	 0.00	-10.60	 0.00	
-8.18	 34.28	 15.95	 3.54	-2.65	 8.64	 36.65	 58.65	-35.25	-3.56	-11.24	 0.00	-15.11	-39.15	-11.89	-3.05	 0.00	-21.66	 39.65	-5.08	 15.80	-32.73	-42.93	-39.34	 0.62	-2.11	 0.02	 8.00	 0.00	 11.68	-54.87	-32.13	-46.25	 39.75	-34.49	 47.24	-1.69	 3.24	 0.10	 10.82	 0.43	-0.08	 6.01	 63.73	-2.01	 0.00	-26.17	 0.00	-19.17	-34.70	-11.19	 14.60	 49.95	-21.29	 0.00	-14.39	 0.00	
-8.39	 34.35	 17.43	 3.77	-2.79	 6.47	 36.69	 58.54	-32.35	-5.04	-10.74	 0.00	-15.78	-38.92	-12.95	-3.79	 0.00	-22.99	 36.69	 0.01	 10.74	-24.80	-40.09	-31.79	 0.57	-2.34	 0.02	 3.81	 0.00	 10.11	-57.82	-41.37	-54.63	 40.39	-32.86	 48.92	-1.69	 3.20	 0.09	 10.05	-2.07	 0.37	 6.78	 72.20	-2.14	 0.00	-20.29	 0.00	-18.64	-34.21	-10.74	 16.14	 52.91	-20.21	 0.00	-17.10	 0.00	
-8.49	 34.51	 18.82	 3.86	-2.87	 3.90	 35.84	 58.61	-28.12	-6.30	-10.08	 0.00	-16.35	-38.72	-13.86	-4.74	 0.00	-24.76	 34.76	 5.39	 6.38	-21.27	-39.53	-28.04	 0.55	-2.40	 0.02	-1.19	 0.00	 8.66	-62.64	-48.46	-63.22	 41.71	-31.23	 51.23	-1.69	 3.16	 0.09	 9.05	-5.46	 0.87	 6.75	 82.53	-1.32	 0.00	-18.72	 0.00	-18.42	-33.19	-10.34	 17.72	 54.02	-18.38	 0.00	-18.49	 0.00	
-8.47	 34.75	 20.13	 3.70	-2.90	 1.05	 34.46	 58.87	-22.99	-7.32	-9.42	 0.00	-16.81	-38.55	-14.60	-6.77	 0.00	-26.05	 34.88	 10.62	 2.51	-21.75	-41.04	-28.62	 0.55	-2.37	 0.02	-5.87	 0.00	 6.55	-69.80	-54.10	-73.25	 43.39	-28.64	 54.33	-1.70	 3.14	 0.09	 8.04	-9.54	 1.34	-164.05	 86.21	 170.61	 0.00	-20.13	 0.00	-17.60	-31.60	-9.44	 17.74	 53.80	-15.53	 0.00	-19.18	 0.00	
-8.37	 35.07	 21.39	 3.31	-2.84	-1.68	 32.92	 59.15	-17.66	-8.11	-8.85	 0.00	-17.17	-38.42	-15.17	-9.61	 0.00	-26.83	 36.68	 15.66	-1.48	-24.63	-44.04	-31.57	 0.58	-2.26	 0.02	-9.33	 0.00	 3.63	-79.00	-58.63	-84.62	 44.53	-25.47	 57.34	-1.72	 3.21	 0.10	 7.17	-14.29	 1.78	-166.92	 75.99	 174.01	 0.00	-22.38	 0.00	-16.09	-29.70	-8.13	 16.14	 53.01	-12.18	 0.00	-19.81	 0.00	
-8.22	 35.49	 22.62	 2.95	-2.55	-3.89	 31.16	 59.05	-13.24	-8.70	-8.41	 0.00	-17.44	-38.33	-15.60	-11.88	 0.00	-27.16	 38.17	 20.27	-5.42	-28.00	-48.28	-34.43	 0.61	-2.10	 0.02	-11.83	 0.00	 0.77	-87.27	-62.38	-94.21	 45.03	-24.54	 58.55	-1.76	 3.26	 0.10	 6.45	-19.72	 2.18	-165.93	 69.01	 172.08	 0.00	-23.95	 0.00	-14.70	-27.75	-6.96	 13.96	 51.92	-9.01	 0.00	-20.54	 0.00	
-8.11	 36.02	 23.87	 3.07	-2.36	-5.68	 28.35	 59.00	-9.89	-9.15	-8.12	 0.00	-17.64	-38.25	-15.92	-12.44	 0.00	-26.61	 37.97	 23.53	-7.93	-31.52	-52.43	-37.33	 0.63	-1.92	 0.02	-13.38	 0.00	-1.58	-92.15	-65.98	-99.58	 45.44	-27.25	 57.52	-1.78	 3.17	 0.10	 6.05	-24.95	 2.56	-162.08	 67.32	 166.40	 0.00	-23.97	 0.00	-13.82	-25.54	-6.05	 11.30	 50.48	-5.89	 0.00	-21.29	 0.00	
-8.06	 36.62	 25.15	 3.60	-2.41	-7.32	 24.24	 59.21	-6.36	-9.55	-7.94	 0.00	-17.80	-38.19	-16.18	-11.48	 0.00	-25.50	 36.09	 24.79	-8.24	-34.32	-54.32	-40.09	 0.65	-1.82	 0.02	-13.93	 0.00	-3.81	-94.00	-68.87	-101.45	 46.44	-31.19	 56.38	-1.75	 2.95	 0.09	 6.10	-29.35	 3.00	-152.77	 70.90	 156.03	 0.00	-22.66	 0.00	-13.15	-22.99	-5.21	 8.06	 48.66	-2.88	 0.00	-22.07	 0.00	
-8.02	 37.18	 26.45	 4.25	-2.35	-8.89	 19.44	 59.12	-2.38	-9.96	-7.85	 0.00	-17.96	-38.13	-16.43	-9.83	 0.00	-24.34	 33.22	 24.42	-6.90	-34.52	-53.78	-40.76	 0.65	-1.84	 0.02	-13.91	 0.00	-5.70	-93.02	-69.99	-100.37	 48.55	-34.18	 56.78	-1.68	 2.64	 0.08	 6.39	-32.94	 3.49	-127.81	 77.34	 131.65	 0.00	-21.28	 0.00	-12.51	-20.50	-4.44	 4.52	 46.59	-0.25	 0.00	-22.88	 0.00	
-7.96	 37.63	 27.78	 4.88	-2.09	-10.40	 14.74	 58.54	 1.24	-10.36	-7.78	 0.00	-18.10	-38.08	-16.65	-8.19	 0.00	-23.21	 30.17	 23.27	-5.07	-33.07	-52.55	-39.80	 0.64	-1.90	 0.02	-13.47	 0.00	-7.22	-89.97	-70.52	-97.09	 51.05	-36.36	 57.96	-1.58	 2.32	 0.06	 6.65	-35.43	 3.87	-66.83	 78.55	 72.62	 0.00	-21.15	 0.00	-12.11	-18.29	-3.85	 1.34	 44.55	 1.87	 0.00	-23.67	 0.00	
-7.86	 37.92	 29.14	 5.44	-1.85	-11.88	 10.96	 57.77	 3.31	-10.67	-7.68	 0.00	-18.20	-38.04	-16.82	-7.32	 0.00	-21.60	 28.20	 21.98	-3.82	-32.43	-51.65	-39.49	 0.63	-1.94	 0.02	-12.39	 0.00	-8.80	-86.76	-73.03	-93.45	 52.56	-38.01	 58.56	-1.52	 2.10	 0.06	 6.90	-36.43	 4.11	-28.94	 68.34	 37.23	 0.00	-22.26	 0.00	-12.23	-16.34	-3.49	-0.89	 43.08	 3.76	 0.00	-24.39	 0.00	
-7.70	 38.04	 30.54	 5.86	-1.62	-13.32	 8.43	 56.94	 3.24	-10.87	-7.48	 0.00	-18.27	-38.01	-16.94	-7.45	 0.00	-19.20	 28.24	 20.68	-3.48	-33.11	-50.88	-40.48	 0.63	-1.94	 0.02	-11.00	 0.00	-9.94	-82.93	-77.28	-89.20	 53.13	-38.68	 58.80	-1.48	 2.01	 0.05	 7.24	-36.01	 4.27	-15.51	 53.32	 26.13	 0.00	-23.69	 0.00	-12.90	-14.80	-3.35	-2.17	 42.57	 5.74	 0.00	-25.28	 0.00	
-7.46	 37.94	 31.98	 5.93	-1.23	-14.80	 6.99	 56.09	 1.98	-10.92	-7.14	 0.00	-18.30	-38.00	-16.98	-7.45	 0.00	-17.36	 29.30	 19.44	-3.35	-33.61	-50.40	-41.10	 0.63	-1.93	 0.02	-11.00	 0.00	-8.94	-72.22	-79.25	-78.42	 53.90	-39.60	 59.26	-1.47	 1.93	 0.05	 7.87	-34.66	 4.49	-8.87	 37.03	 21.95	 0.00	-25.31	 0.00	-13.72	-13.78	-3.33	-2.90	 43.08	 7.66	 0.00	-26.72	 0.00	
-7.17	 37.62	 33.45	 5.34	-0.69	-16.40	 6.36	 55.36	 0.97	-10.83	-6.79	 0.00	-18.28	-38.01	-16.94	-6.74	 0.00	-18.07	 29.92	 18.93	-3.02	-31.76	-51.09	-38.57	 0.63	-1.91	 0.02	-12.44	 0.00	-5.60	-60.08	-76.78	-66.50	 55.69	-41.16	 60.46	-1.48	 1.82	 0.05	 9.00	-33.13	 4.95	-4.81	 22.67	 21.29	 0.00	-27.06	 0.00	-14.15	-13.06	-3.26	-3.62	 44.36	 9.54	 0.00	-28.64	 0.00	
-6.81	 37.07	 34.94	 3.95	-0.15	-18.21	 6.29	 54.98	 1.15	-10.58	-6.67	 0.00	-18.18	-38.05	-16.79	-5.99	 0.00	-21.58	 29.88	 19.40	-2.75	-26.82	-52.56	-32.08	 0.63	-1.92	 0.02	-13.19	 0.00	-1.87	-54.02	-72.13	-60.39	 58.62	-41.44	 62.82	-1.50	 1.73	 0.05	 10.84	-32.03	 5.80	-2.30	 13.12	 22.98	 0.00	-28.01	 0.00	-13.95	-12.37	-3.05	-4.65	 46.16	 11.77	 0.00	-30.98	 0.00	
